# xmcd
#
# Track frame offsets:
#	150
#	14145
#	28077
#
# Disc length: 559 seconds
#
# Revision: 0
# Processed by: cddbd v1.5.2PL0 Copyright (c) Steve Scherf et al.
# Submitted via: dBpowerAMP V4.0
#
DISCID=21022d03
DTITLE=Pinmonkey - Let's Kill Saturday Night [Promo]
DYEAR=2004
DGENRE=Country
TTITLE0=Let's Kill Saturday Night (No.1)
TTITLE1=Let's Kill Saturday Night (No.2)
TTITLE2=Let's Kill Saturday Night (No.3)
EXTD=Pinmonkey - Let's kill saturday night [2004]
EXTT0=
EXTT1=
EXTT2=
PLAYORDER=
